/* XPM */
static char * icon_xpm[] = {
"68 48 207 2",
"  	c None",
". 	c #376000",
"+ 	c #3C6400",
"@ 	c #3D6100",
"# 	c #3C5E00",
"$ 	c #395B00",
"% 	c #3F6700",
"& 	c #477000",
"* 	c #3F6D00",
"= 	c #407000",
"- 	c #3D6F00",
"; 	c #3B6F00",
"> 	c #3C6C00",
", 	c #3D6E00",
"' 	c #3F7100",
") 	c #407100",
"! 	c #3E6F00",
"~ 	c #335A00",
"{ 	c #345F00",
"] 	c #3F7300",
"^ 	c #3C7300",
"/ 	c #386D00",
"( 	c #376A00",
"_ 	c #366600",
": 	c #2E5E00",
"< 	c #336200",
"[ 	c #346500",
"} 	c #386700",
"| 	c #386900",
"1 	c #3E6E00",
"2 	c #3D6D00",
"3 	c #306000",
"4 	c #396100",
"5 	c #416F00",
"6 	c #3D6B00",
"7 	c #417300",
"8 	c #255000",
"9 	c #316000",
"0 	c #316200",
"a 	c #3F6A00",
"b 	c #2D5700",
"c 	c #3C7100",
"d 	c #386A00",
"e 	c #305900",
"f 	c #376100",
"g 	c #3C6B00",
"h 	c #2E6500",
"i 	c #3B6900",
"j 	c #355400",
"k 	c #2C5400",
"l 	c #3A7000",
"m 	c #3B7200",
"n 	c #295800",
"o 	c #3A6A00",
"p 	c #376800",
"q 	c #416E00",
"r 	c #3D6500",
"s 	c #396F00",
"t 	c #326200",
"u 	c #3D7200",
"v 	c #325D00",
"w 	c #000003",
"x 	c #010300",
"y 	c #3E7000",
"z 	c #3B7300",
"A 	c #244600",
"B 	c #3C6800",
"C 	c #3B6800",
"D 	c #040300",
"E 	c #305700",
"F 	c #397100",
"G 	c #376500",
"H 	c #366300",
"I 	c #3D6C00",
"J 	c #3C6700",
"K 	c #010100",
"L 	c #366100",
"M 	c #3A7200",
"N 	c #2D5A00",
"O 	c #3B6500",
"P 	c #386800",
"Q 	c #426E00",
"R 	c #3A6600",
"S 	c #387000",
"T 	c #235000",
"U 	c #436C00",
"V 	c #3D6A00",
"W 	c #3B6700",
"X 	c #387200",
"Y 	c #245400",
"Z 	c #456F00",
"` 	c #2F6300",
" .	c #386400",
"..	c #3A7100",
"+.	c #2C5B00",
"@.	c #326600",
"#.	c #305300",
"$.	c #356A00",
"%.	c #356500",
"&.	c #3C6900",
"*.	c #396B00",
"=.	c #406F00",
"-.	c #325A00",
";.	c #316400",
">.	c #2D4E00",
",.	c #396A00",
"'.	c #3A6900",
").	c #417100",
"!.	c #2E5800",
"~.	c #365F00",
"{.	c #366700",
"].	c #447400",
"^.	c #264F00",
"/.	c #366800",
"(.	c #346600",
"_.	c #214800",
":.	c #375E00",
"<.	c #366500",
"[.	c #447600",
"}.	c #4A7A00",
"|.	c #000000",
"1.	c #000001",
"2.	c #2E5B00",
"3.	c #336700",
"4.	c #285500",
"5.	c #355F00",
"6.	c #4E7D00",
"7.	c #336500",
"8.	c #2C5900",
"9.	c #215400",
"0.	c #325F00",
"a.	c #376700",
"b.	c #3F7000",
"c.	c #284F00",
"d.	c #2F5F00",
"e.	c #2C6500",
"f.	c #376300",
"g.	c #3A6300",
"h.	c #437400",
"i.	c #426F00",
"j.	c #446E00",
"k.	c #326700",
"l.	c #366900",
"m.	c #467200",
"n.	c #000002",
"o.	c #002006",
"p.	c #2E4F00",
"q.	c #346400",
"r.	c #376600",
"s.	c #2C6000",
"t.	c #2D6100",
"u.	c #306400",
"v.	c #316300",
"w.	c #3C6A00",
"x.	c #386000",
"y.	c #0B1900",
"z.	c #112400",
"A.	c #1F3E00",
"B.	c #2F5400",
"C.	c #386300",
"D.	c #3E6A00",
"E.	c #3F6B00",
"F.	c #3D6900",
"G.	c #3A6400",
"H.	c #356400",
"I.	c #0F3A00",
"J.	c #00190F",
"K.	c #000521",
"L.	c #2F5100",
"M.	c #356900",
"N.	c #225900",
"O.	c #1F5100",
"P.	c #103800",
"Q.	c #0F2200",
"R.	c #070700",
"S.	c #02000C",
"T.	c #00020D",
"U.	c #000600",
"V.	c #2E6100",
"W.	c #265500",
"X.	c #1D4D00",
"Y.	c #164200",
"Z.	c #345A00",
"`.	c #3C6E00",
" +	c #336300",
".+	c #275A00",
"++	c #1A4500",
"@+	c #113300",
"#+	c #346700",
"$+	c #2F5E00",
"%+	c #235600",
"&+	c #143700",
"*+	c #3B6200",
"=+	c #285B00",
"-+	c #2B5600",
";+	c #1E5000",
">+	c #0F3900",
",+	c #346000",
"'+	c #2D5C00",
")+	c #285000",
"!+	c #183E00",
"~+	c #284C00",
"{+	c #345E00",
"]+	c #204600",
"^+	c #1A3C00",
"/+	c #142C00",
"(+	c #0A0006",
"                                                                                                                                        ",
"                                                                                                                                        ",
"                                                                                                                                        ",
"                                                                                                                                        ",
"                                                                                                                                        ",
"                                                                      . + @ # $ %                                                       ",
"                                                                & * = - ; > , ' ) ! ~                                                   ",
"                                                              { ] ^ / ( _ : < [ } | 1 2 3                                               ",
"                                                            4 5 6 7 8             9 0 _ - a                                             ",
"                                                          b c d e                   f g h i j                                           ",
"                                                        k l m n                         o p q r                                         ",
"                                                        6 s t                             p u v                                         ",
"                                            w w x     y z * A                             B p C                                         ",
"                                          w w w D     E F G                                 H I J                                       ",
"                                          w w w K     L M N                                 O P Q                                       ",
"                                          w w         R S T                                 U [ V                                       ",
"                                          w w         W X Y                                 Z ` _                                       ",
"                                          w w          ...+.                                Q @.o                                       ",
"                                          w w         #.$.%.                                &.*.=.                                      ",
"                                          w w         -.;.=.>.                            6 ,.'.).                                      ",
"                                          w w           < '.!.                            ~.{.].                                        ",
"                                          w w           ^./.(._.                        :.<.[.}.                                        ",
"                                      |.1.w w             2.l 3.4.                    5.(.z 6.                                          ",
"                                      |.w w                 +.7.9 8.9.            r 0.3.a.b.                                            ",
"                                        w w w               c.v d.e.d f.g.1 h.i.j.P k.l.m.                                              ",
"                                          w n.                o.p.q.<.a.r.s.t.u.v.k.w.x.                                                ",
"                                          w n.                  y.z.A.B.C.D.E.F.D.G.                                                    ",
"                                          w n.            2.H.I.J.K.                                                                    ",
"                                          n.n.          L.M.N.O.P.Q.              R.S.T.U.                                              ",
"                                          n.n.          i V.W.X.Y.                |.|.|.|.|.                                            ",
"                                          n.n.        Z.`. +.+++@+                    |.|.|.                                            ",
"                                          n.w         > #+$+%+&+                      |.|.|.                                            ",
"                                          n.n.      *+/ =+-+;+>+                      |.|.|.                                            ",
"                                          n.n.      ,+( '+)+!+                        |.|.|.                                            ",
"                                          n.n.        ~+{+]+                          |.|.|.|.                                          ",
"                                          n.n.          ^+/+                              |.|.                                          ",
"                                          n.n.      (+                                  |.|.|.                                          ",
"                                          |.|.        |.|.                            |.|.|.                                            ",
"                                          |.|.                                        |.|.|.                                            ",
"                                          |.|.                                        |.|.|.                                            ",
"                                          |.|.                                        |.|.|.                                            ",
"                                          |.|.|.|.|.|.|.|.|.|.|.|.|.|.|.|.|.|.|.|.|.|.|.|.|.                                            ",
"                                          |.|.|.|.|.|.|.|.|.|.|.|.|.|.|.|.|.|.|.|.|.|.|.|.                                              ",
"                                                                                                                                        ",
"                                                                                                                                        ",
"                                                                                                                                        ",
"                                                                                                                                        ",
"                                                                                                                                        "};
